HIERARCHY
ROOT Hips
{
	OFFSET 0.000000 83.214638 0.000000
	CHANNELS 6 Xposition Yposition Zposition Xrotation Yrotation Zrotation
	JOINT Pelvis
	{
		OFFSET 0.000000 0.000000 0.000000
		CHANNELS 3 Xrotation Yrotation Zrotation
		JOINT LeftUpLeg
		{
			OFFSET 8.479700 -4.795502 -0.379100
			CHANNELS 3 Xrotation Yrotation Zrotation
			JOINT LeftLeg
			{
				OFFSET 0.024144 -32.555107 0.112900
				CHANNELS 3 Xrotation Yrotation Zrotation
				JOINT LeftFoot
				{
					OFFSET -0.024144 -32.638630 -3.012600
					CHANNELS 3 Xrotation Yrotation Zrotation
					JOINT LeftToeBase
					{
						OFFSET 0.970200 -13.225400 11.864200
						CHANNELS 3 Xrotation Yrotation Zrotation
						End Site
						{
							OFFSET 0.000000 12.319262 0.000000
						}
					}
					JOINT LFootTongue
					{
						OFFSET 1.142400 -1.059800 6.665200
						CHANNELS 3 Xrotation Yrotation Zrotation
						End Site
						{
							OFFSET 0.000000 12.319262 0.000000
						}
					}
				}
				JOINT LeftPantLeg
				{
					OFFSET 0.918482 -16.533964 -2.284700
					CHANNELS 3 Xrotation Yrotation Zrotation
					End Site
					{
						OFFSET 0.350399 24.744368 0.000000
					}
				}
			}
		}
		JOINT RightUpLeg
		{
			OFFSET -8.479700 -4.795502 -0.379100
			CHANNELS 3 Xrotation Yrotation Zrotation
			JOINT RightLeg
			{
				OFFSET -0.023144 -32.555092 0.112900
				CHANNELS 3 Xrotation Yrotation Zrotation
				JOINT RightFoot
				{
					OFFSET 0.023144 -32.638641 -3.012700
					CHANNELS 3 Xrotation Yrotation Zrotation
					JOINT RightToeBase
					{
						OFFSET -0.970200 -13.225400 11.864200
						CHANNELS 3 Xrotation Yrotation Zrotation
						End Site
						{
							OFFSET 0.000000 12.319244 0.000000
						}
					}
					JOINT RFootTongue
					{
						OFFSET -1.142200 -1.059800 6.665200
						CHANNELS 3 Xrotation Yrotation Zrotation
						End Site
						{
							OFFSET 0.000000 12.319243 0.000000
						}
					}
				}
				JOINT RightPantLeg
				{
					OFFSET -0.919482 -16.533978 -2.284800
					CHANNELS 3 Xrotation Yrotation Zrotation
					End Site
					{
						OFFSET -0.350400 24.744419 0.000000
					}
				}
			}
		}
	}
	JOINT Spine
	{
		OFFSET 0.000000 7.722000 1.166200
		CHANNELS 3 Xrotation Yrotation Zrotation
		JOINT Spine1
		{
			OFFSET 0.000000 12.024101 0.248800
			CHANNELS 3 Xrotation Yrotation Zrotation
			JOINT Spine2
			{
				OFFSET 0.000000 11.502998 -0.491200
				CHANNELS 3 Xrotation Yrotation Zrotation
				JOINT Neck
				{
					OFFSET 0.000000 18.430702 -3.123100
					CHANNELS 3 Xrotation Yrotation Zrotation
					JOINT Head
					{
						OFFSET 0.000000 9.051102 1.034000
						CHANNELS 3 Xrotation Yrotation Zrotation
						JOINT HairB
						{
							OFFSET 0.208400 24.786102 24.822300
							CHANNELS 3 Xrotation Yrotation Zrotation
							End Site
							{
								OFFSET 0.000000 32.263779 0.000000
							}
						}
						JOINT HairA
						{
							OFFSET -7.081100 24.428299 23.196600
							CHANNELS 3 Xrotation Yrotation Zrotation
							End Site
							{
								OFFSET 0.000000 32.263779 0.000000
							}
						}
						JOINT Hat
						{
							OFFSET 16.728800 15.048294 -15.439601
							CHANNELS 3 Xrotation Yrotation Zrotation
							End Site
							{
								OFFSET 0.000000 32.263779 0.000000
							}
						}
					}
				}
				JOINT LeftShoulder
				{
					OFFSET 6.197800 13.665199 -4.064700
					CHANNELS 3 Xrotation Yrotation Zrotation
					JOINT LeftArm
					{
						OFFSET 7.778100 -0.187103 -1.709300
						CHANNELS 3 Xrotation Yrotation Zrotation
						JOINT LeftForeArm
						{
							OFFSET 22.049376 0.000000 0.000000
							CHANNELS 3 Xrotation Yrotation Zrotation
							JOINT LeftHand
							{
								OFFSET 23.009392 0.000000 0.000000
								CHANNELS 3 Xrotation Yrotation Zrotation
								JOINT LeftHandThumb1
								{
									OFFSET 3.507191 -2.063065 3.133727
									CHANNELS 3 Xrotation Yrotation Zrotation
									JOINT LeftHandThumb2
									{
										OFFSET 3.101337 -1.790558 1.790558
										CHANNELS 3 Xrotation Yrotation Zrotation
										JOINT LeftHandThumb3
										{
											OFFSET 3.058640 -1.765907 1.765906
											CHANNELS 3 Xrotation Yrotation Zrotation
											End Site
											{
												OFFSET -0.415260 3.926476 -0.049563
											}
										}
									}
								}
								JOINT LeftHandIndex1
								{
									OFFSET 11.334419 -0.901459 3.706815
									CHANNELS 3 Xrotation Yrotation Zrotation
									JOINT LeftHandIndex2
									{
										OFFSET 3.283112 0.000000 0.000000
										CHANNELS 3 Xrotation Yrotation Zrotation
										JOINT LeftHandIndex3
										{
											OFFSET 3.323853 0.000000 0.000000
											CHANNELS 3 Xrotation Yrotation Zrotation
											End Site
											{
												OFFSET -1.135597 3.097809 0.402452
											}
										}
									}
								}
								JOINT LeftHandMiddle1
								{
									OFFSET 11.335861 0.000000 0.000000
									CHANNELS 3 Xrotation Yrotation Zrotation
									JOINT LeftHandMiddle2
									{
										OFFSET 3.410492 0.000000 0.000000
										CHANNELS 3 Xrotation Yrotation Zrotation
										JOINT LeftHandMiddle3
										{
											OFFSET 3.312172 0.000000 0.000000
											CHANNELS 3 Xrotation Yrotation Zrotation
											End Site
											{
												OFFSET -1.150200 3.080154 0.400270
											}
										}
									}
								}
								JOINT LeftHandRing1
								{
									OFFSET 11.514786 -0.013176 -3.003090
									CHANNELS 3 Xrotation Yrotation Zrotation
									JOINT LeftHandRing2
									{
										OFFSET 3.053307 0.000000 0.000000
										CHANNELS 3 Xrotation Yrotation Zrotation
										JOINT LeftHandRing3
										{
											OFFSET 3.295807 0.000000 0.000000
											CHANNELS 3 Xrotation Yrotation Zrotation
											End Site
											{
												OFFSET -1.281006 3.013344 0.375733
											}
										}
									}
								}
								JOINT LeftHandPinky1
								{
									OFFSET 10.518692 -0.960396 -5.730441
									CHANNELS 3 Xrotation Yrotation Zrotation
									JOINT LeftHandPinky2
									{
										OFFSET 2.861649 0.000000 0.000000
										CHANNELS 3 Xrotation Yrotation Zrotation
										JOINT LeftHandPinky3
										{
											OFFSET 2.863380 0.000000 0.000000
											CHANNELS 3 Xrotation Yrotation Zrotation
											End Site
											{
												OFFSET -0.843597 2.711159 0.369971
											}
										}
									}
								}
							}
							JOINT LSleeve
							{
								OFFSET 6.676277 -0.344902 -1.011730
								CHANNELS 3 Xrotation Yrotation Zrotation
								End Site
								{
									OFFSET 0.000000 14.885353 0.000000
								}
							}
						}
					}
				}
				JOINT RightShoulder
				{
					OFFSET -6.197800 13.665199 -4.064700
					CHANNELS 3 Xrotation Yrotation Zrotation
					JOINT RightArm
					{
						OFFSET -7.778100 -0.187103 -1.709300
						CHANNELS 3 Xrotation Yrotation Zrotation
						JOINT RightForeArm
						{
							OFFSET -22.049376 0.000000 0.000000
							CHANNELS 3 Xrotation Yrotation Zrotation
							JOINT RightHand
							{
								OFFSET -23.009392 0.000000 0.000000
								CHANNELS 3 Xrotation Yrotation Zrotation
								JOINT RightHandThumb1
								{
									OFFSET -3.507191 -2.063065 3.133727
									CHANNELS 3 Xrotation Yrotation Zrotation
									JOINT RightHandThumb2
									{
										OFFSET -3.101337 -1.790558 1.790558
										CHANNELS 3 Xrotation Yrotation Zrotation
										JOINT RightHandThumb3
										{
											OFFSET -3.058640 -1.765907 1.765906
											CHANNELS 3 Xrotation Yrotation Zrotation
											End Site
											{
												OFFSET 0.415260 3.926476 -0.049563
											}
										}
									}
								}
								JOINT RightHandIndex1
								{
									OFFSET -11.334419 -0.901459 3.706815
									CHANNELS 3 Xrotation Yrotation Zrotation
									JOINT RightHandIndex2
									{
										OFFSET -3.283112 0.000000 0.000000
										CHANNELS 3 Xrotation Yrotation Zrotation
										JOINT RightHandIndex3
										{
											OFFSET -3.323853 0.000000 0.000000
											CHANNELS 3 Xrotation Yrotation Zrotation
											End Site
											{
												OFFSET 1.135597 3.097809 0.402452
											}
										}
									}
								}
								JOINT RightHandMiddle1
								{
									OFFSET -11.335861 0.000000 0.000000
									CHANNELS 3 Xrotation Yrotation Zrotation
									JOINT RightHandMiddle2
									{
										OFFSET -3.410492 0.000000 0.000000
										CHANNELS 3 Xrotation Yrotation Zrotation
										JOINT RightHandMiddle3
										{
											OFFSET -3.312172 0.000000 0.000000
											CHANNELS 3 Xrotation Yrotation Zrotation
											End Site
											{
												OFFSET 1.150200 3.080154 0.400270
											}
										}
									}
								}
								JOINT RightHandRing1
								{
									OFFSET -11.514786 -0.013176 -3.003090
									CHANNELS 3 Xrotation Yrotation Zrotation
									JOINT RightHandRing2
									{
										OFFSET -3.053307 0.000000 0.000000
										CHANNELS 3 Xrotation Yrotation Zrotation
										JOINT RightHandRing3
										{
											OFFSET -3.295807 0.000000 0.000000
											CHANNELS 3 Xrotation Yrotation Zrotation
											End Site
											{
												OFFSET 1.281006 3.013344 0.375733
											}
										}
									}
								}
								JOINT RightHandPinky1
								{
									OFFSET -10.518692 -0.960396 -5.730441
									CHANNELS 3 Xrotation Yrotation Zrotation
									JOINT RightHandPinky2
									{
										OFFSET -2.861649 0.000000 0.000000
										CHANNELS 3 Xrotation Yrotation Zrotation
										JOINT RightHandPinky3
										{
											OFFSET -2.863380 0.000000 0.000000
											CHANNELS 3 Xrotation Yrotation Zrotation
											End Site
											{
												OFFSET 0.843597 2.711159 0.369971
											}
										}
									}
								}
							}
							JOINT RSleeve
							{
								OFFSET -6.676277 -0.344902 -1.011730
								CHANNELS 3 Xrotation Yrotation Zrotation
								End Site
								{
									OFFSET 0.000000 14.885353 0.000000
								}
							}
						}
					}
				}
				JOINT Backpack
				{
					OFFSET 0.000000 -2.471497 36.677502
					CHANNELS 3 Xrotation Yrotation Zrotation
					End Site
					{
						OFFSET 0.000000 20.427315 0.000000
					}
				}
				JOINT Hood
				{
					OFFSET 0.000000 18.754097 -10.431000
					CHANNELS 3 Xrotation Yrotation Zrotation
					JOINT Hood1
					{
						OFFSET 0.000000 -5.011002 -7.685901
						CHANNELS 3 Xrotation Yrotation Zrotation
						End Site
						{
							OFFSET 0.000000 9.175140 0.000000
						}
					}
				}
				JOINT LHoodieString
				{
					OFFSET 5.250500 16.397697 3.089900
					CHANNELS 3 Xrotation Yrotation Zrotation
					JOINT LHoodieString1
					{
						OFFSET 0.257700 -6.364304 3.694600
						CHANNELS 3 Xrotation Yrotation Zrotation
						JOINT LHoodieString2
						{
							OFFSET 0.000000 -9.643799 2.679100
							CHANNELS 3 Xrotation Yrotation Zrotation
							End Site
							{
								OFFSET 0.000000 10.009018 0.000000
							}
						}
					}
				}
				JOINT RHoodieString
				{
					OFFSET -5.250500 16.397697 3.089900
					CHANNELS 3 Xrotation Yrotation Zrotation
					JOINT RHoodieString1
					{
						OFFSET -0.257700 -6.364304 3.694600
						CHANNELS 3 Xrotation Yrotation Zrotation
						JOINT RHoodieString2
						{
							OFFSET 0.000000 -9.643799 2.679100
							CHANNELS 3 Xrotation Yrotation Zrotation
							End Site
							{
								OFFSET 0.000000 10.009018 0.000000
							}
						}
					}
				}
			}
			JOINT LBackpack_Strap
			{
				OFFSET 15.223200 -7.719803 -6.610900
				CHANNELS 3 Xrotation Yrotation Zrotation
				End Site
				{
					OFFSET 0.000000 16.040596 0.000000
				}
			}
			JOINT RBackpack_Strap
			{
				OFFSET -15.223000 -7.719803 -6.610900
				CHANNELS 3 Xrotation Yrotation Zrotation
				End Site
				{
					OFFSET 0.000000 16.040596 0.000000
				}
			}
		}
	}
	JOINT BoyFacialAnim_Joint
	{
		OFFSET 1.000000 -82.208099 -1.550900
		CHANNELS 3 Xrotation Yrotation Zrotation
		End Site
		{
			OFFSET 0.000000 30.012791 0.000000
		}
	}
}
MOTION
Frames: 4
Frame Time: 0.016667
-18.511282 112.777908 26.554205 2.233466 -19.991380 1.918771 -0.000000 0.000000 -0.000000 -23.392978 10.007997 3.693465 38.214441 6.250943 4.289888 22.990263 -0.479655 -4.181513 -0.000001 0.000000 -0.000000 -0.000001 0.000000 -0.000000 0.000002 -0.000000 0.000000 -3.187353 -7.187376 -2.523066 17.905221 -22.923754 3.733296 33.535662 -3.270528 -3.029778 0.000003 -0.000002 -0.000001 0.000003 -0.000002 -0.000001 0.000000 -0.000001 0.000000 -1.335420 -0.060620 -0.571526 -2.672068 -0.088750 -1.714353 -2.672069 -0.088748 -1.714353 -29.250142 2.152606 0.925376 -6.741630 1.385355 2.203546 -0.000002 -0.000000 -0.000001 -0.000002 -0.000000 -0.000001 -0.000002 -0.000000 -0.000001 3.677176 6.194740 24.143602 -59.663342 -29.699285 18.551123 331.726387 -50.304794 364.575663 9.712933 12.043585 4.406368 -18.855681 8.933426 3.057173 -10.184087 7.391066 11.736449 0.000000 -0.000000 0.000003 -0.592727 -8.809687 -64.466891 -7.414309 -3.195994 -73.590261 0.000000 0.000000 -0.000002 -4.669404 -3.546344 -64.557514 -4.343528 -4.390791 -63.402235 0.000000 -0.000003 -0.000004 -8.499388 6.196423 -65.422291 -0.143903 -6.140968 -71.299184 -0.000001 0.000000 -0.000000 -11.696415 6.569868 -64.444617 0.747961 -7.748535 -64.679767 0.000002 -0.000003 -0.000001 0.000002 -0.000001 -0.000000 -5.618870 -8.488127 -29.945267 -79.202471 30.402087 25.861301 -28.766967 45.497338 -9.943792 18.101897 -7.770106 -17.702085 -9.927557 -3.135337 -3.423715 9.147239 -6.167977 1.841518 -0.000001 0.000001 0.000000 -5.800752 7.899897 47.461110 -1.705284 0.304393 43.209833 -0.000000 -0.000001 -0.000002 -3.405842 2.123237 34.452393 -0.819718 0.602192 26.448268 -0.000001 0.000000 -0.000000 -6.121039 -2.660814 25.197522 0.241165 1.204286 20.283555 -0.000001 0.000000 0.000002 -8.974024 -11.015639 18.858285 0.726516 6.448858 30.513846 -0.000000 -0.000001 0.000000 0.000000 0.000001 -0.000000 0.000000 0.000001 0.000000 0.000000 0.000001 0.000000 0.000000 0.000001 0.000000 0.000000 0.000001 0.000000 0.000000 0.000001 0.000001 0.000000 -0.000000 -0.000000 0.000000 0.000001 0.000000 0.000000 0.000001 0.000001 0.000000 -0.000000 -0.000000 0.000000 0.000001 -0.000000 0.000000 0.000001 -0.000000 -0.000000 0.000000 -0.000000 
-18.532288 112.072731 27.014814 1.981393 -19.328286 1.641907 -0.000000 -0.000000 0.000000 -24.248507 9.609001 3.322849 38.905915 8.132728 4.030360 26.177480 -0.348234 -2.784273 -0.000000 -0.000000 -0.000000 -0.000000 -0.000000 0.000000 0.000001 0.000000 0.000000 -4.497934 -7.448406 -3.139748 18.856800 -22.169804 3.761356 35.887921 -3.213303 -3.536038 0.000004 -0.000000 -0.000004 0.000004 -0.000000 -0.000004 0.000000 0.000005 -0.000001 -1.423302 -0.127490 -0.510213 -2.849546 -0.229102 -1.624431 -2.849544 -0.229103 -1.624431 -27.415816 2.071723 -0.405983 -8.884812 0.776540 3.209521 -0.000003 -0.000001 -0.000001 -0.000003 -0.000001 -0.000001 -0.000003 -0.000001 -0.000001 4.781806 6.071384 25.311127 -58.312767 -25.193197 16.875541 334.030074 -55.829577 367.584416 10.718700 15.468673 -3.727595 -21.309487 8.848109 3.603938 -11.046014 7.810731 12.734287 -0.000001 -0.000001 0.000002 -0.668646 -9.385942 -69.496984 -8.126659 -3.034123 -78.334429 0.000001 0.000001 -0.000003 -5.910785 -3.911920 -68.776112 -4.727745 -4.456418 -66.846454 -0.000000 -0.000001 -0.000005 -9.746232 6.167398 -68.259661 -0.270660 -6.498683 -74.555770 -0.000001 0.000000 -0.000000 -13.460173 6.392944 -66.874505 0.796669 -7.975021 -66.777120 -0.000003 -0.000000 -0.000000 -0.000000 0.000001 0.000001 -3.148150 -6.622054 -28.188290 -74.921206 31.517245 20.078738 -28.646385 45.441074 -7.798874 14.499148 -7.568621 -15.891495 -11.314175 -0.640383 -7.794861 7.524581 -9.236264 1.695804 -0.000001 0.000001 -0.000001 -6.559496 7.393430 54.528863 -2.449472 0.693807 50.819780 -0.000000 0.000000 0.000002 -5.103889 3.187945 44.972861 -1.503192 1.527321 37.885683 -0.000000 -0.000001 0.000001 -7.748219 -2.737584 35.791731 0.248002 1.908882 31.704973 -0.000000 -0.000001 0.000004 -9.849989 -10.151354 30.707226 1.148578 7.284854 39.051835 -0.000000 -0.000001 0.000002 0.000000 -0.000000 -0.000000 -0.000001 0.000001 -0.000000 -0.000001 0.000001 -0.000000 -0.000001 0.000001 -0.000000 -0.000001 0.000001 -0.000000 -0.000001 0.000001 -0.000000 -0.000000 0.000001 0.000000 -0.000001 0.000001 -0.000000 -0.000001 0.000001 -0.000000 -0.000000 0.000001 0.000000 -0.000000 0.000000 -0.000000 -0.000000 0.000000 -0.000000 -0.000000 -0.000000 0.000000 
-18.544394 111.217110 27.468245 1.646331 -18.535463 1.335996 0.000000 0.000001 0.000000 -24.930114 9.107066 3.168268 39.600423 10.190447 3.353926 29.223343 -0.172715 -1.034538 -0.000003 0.000000 -0.000000 -0.000003 0.000000 -0.000000 -0.000002 0.000000 -0.000000 -5.718679 -7.396320 -3.540678 19.851668 -20.872534 3.604211 38.333887 -2.789804 -4.221811 0.000002 0.000000 -0.000001 0.000002 0.000000 -0.000001 0.000000 -0.000001 -0.000001 -1.508389 -0.159852 -0.450289 -3.020491 -0.300869 -1.519637 -3.020491 -0.300878 -1.519637 -26.025213 2.006425 -1.891969 -10.487894 0.012928 4.301346 -0.000000 -0.000001 0.000000 -0.000000 -0.000001 0.000000 -0.000000 -0.000001 0.000000 5.846716 6.266301 26.599547 -57.037195 -19.937332 14.143161 336.297423 -62.699518 371.221738 12.075450 18.775983 -12.001248 -22.924203 8.761551 3.939450 -11.613943 8.069314 13.395149 -0.000000 -0.000001 -0.000002 -0.755065 -9.793331 -72.801689 -8.582101 -2.886298 -81.445204 -0.000001 0.000000 -0.000002 -6.750409 -4.067573 -71.547898 -4.980429 -4.484648 -69.106529 0.000001 -0.000001 -0.000002 -10.571540 6.213410 -70.118572 -0.370412 -6.734649 -76.694002 -0.000001 0.000000 -0.000002 -14.634879 6.353586 -68.460584 0.821192 -8.127424 -68.153922 -0.000001 0.000003 -0.000002 -0.000001 0.000001 0.000001 -2.023503 -4.492266 -27.139989 -68.184310 31.329443 12.866655 -29.783023 45.104025 -2.566852 9.883231 -7.225247 -16.008773 -12.809655 2.188552 -12.808836 5.561964 -12.734976 1.298093 -0.000000 0.000001 0.000004 -7.288528 6.738032 62.692339 -3.350660 0.967329 59.638849 -0.000002 0.000000 0.000002 -7.419757 3.777889 57.205536 -2.526064 2.313681 51.151003 -0.000000 0.000001 0.000002 -9.662699 -3.338311 48.032677 0.154362 2.763930 44.927144 -0.000001 0.000000 0.000002 -11.600121 -9.546213 44.232186 1.459217 8.447032 48.947297 -0.000000 0.000000 -0.000001 0.000000 0.000000 0.000000 -0.000000 -0.000003 -0.000000 -0.000000 -0.000003 -0.000000 -0.000000 -0.000003 -0.000000 -0.000000 -0.000003 -0.000000 -0.000000 -0.000003 0.000000 0.000000 -0.000001 -0.000000 -0.000000 -0.000003 -0.000000 -0.000000 -0.000003 0.000000 0.000000 -0.000001 -0.000000 -0.000000 0.000001 0.000000 -0.000000 0.000001 0.000000 0.000000 0.000001 0.000000 
-18.560160 110.271744 27.927160 1.243637 -17.596352 1.007197 -0.000000 0.000001 -0.000000 -25.424435 8.994388 3.033193 40.190090 11.779347 2.950782 31.889026 0.264077 0.703647 -0.000002 -0.000000 -0.000000 -0.000002 -0.000000 -0.000000 0.000001 0.000000 0.000000 -6.880647 -7.297979 -3.370930 20.739953 -20.012425 2.266816 40.662855 -1.667095 -3.923482 -0.000001 0.000001 -0.000002 -0.000001 0.000001 -0.000002 -0.000000 -0.000001 -0.000000 -1.644702 -0.146011 -0.334107 -3.292606 -0.278829 -1.303055 -3.292603 -0.278817 -1.303054 -24.829281 1.898689 -2.852161 -11.555611 -0.586097 4.627745 0.000005 -0.000001 -0.000001 0.000005 -0.000001 -0.000001 0.000005 -0.000001 -0.000001 6.717991 6.329313 27.810083 -55.092586 -13.574160 10.508925 339.071873 -71.280162 375.947218 13.106027 22.007747 -18.493755 -23.505075 8.724727 4.055235 -11.818385 8.158946 13.633699 0.000003 -0.000001 -0.000001 -0.793905 -9.944852 -73.989882 -8.742862 -2.825286 -82.562302 -0.000001 -0.000000 -0.000002 -7.055819 -4.106880 -72.544033 -5.071179 -4.491925 -69.918420 -0.000001 -0.000000 0.000000 -10.868871 6.242571 -70.785622 -0.409513 -6.819502 -77.462459 -0.000001 0.000002 -0.000005 -15.058815 6.352204 -69.028528 0.828518 -8.182917 -68.648660 -0.000001 0.000002 -0.000003 -0.000000 0.000001 0.000000 -0.962622 -3.617260 -26.818758 -63.904261 30.681124 10.710905 -28.415919 46.120395 -0.431034 6.073484 -6.296539 -14.958000 -14.232516 4.972267 -17.779607 3.459924 -16.185129 0.633626 0.000000 0.000000 -0.000002 -7.858091 6.046780 70.836158 -4.257008 1.049408 68.456705 -0.000000 -0.000000 0.000004 -9.917041 3.592967 69.474765 -3.708019 2.725250 64.428806 -0.000002 -0.000000 0.000005 -11.472239 -4.499122 60.238594 -0.069187 3.650684 58.140503 -0.000001 -0.000001 0.000002 -13.977444 -9.646181 57.544446 1.523867 9.778944 58.870773 0.000001 0.000001 -0.000001 -0.000000 -0.000001 -0.000001 -0.000000 -0.000001 -0.000000 -0.000000 -0.000001 -0.000000 -0.000000 -0.000001 -0.000000 -0.000000 -0.000001 -0.000000 -0.000000 -0.000001 -0.000000 -0.000000 0.000001 -0.000000 -0.000000 -0.000001 -0.000000 -0.000000 -0.000001 -0.000000 -0.000000 0.000001 -0.000000 0.000000 -0.000001 -0.000000 0.000000 -0.000001 -0.000000 -0.000000 0.000001 -0.000000 
